# xmcd CD database file
#
# Track frame offsets:
#	150
#	7140
#	24517
#	48340
#	69840
#	89597
#	109515
#	125665
#	150197
#	170350
#	190767
#	216740
#	234317
#	260440
#	289617
#
# Disc length: 4440 seconds
#
# Revision: 0
# Processed by: cddbd v1.5.1PL0 Copyright (c) Steve Scherf et al.
# Submitted via: CDex 1.51
#
DISCID=c811560f
DTITLE=安良城紅 - Beni
DYEAR=1900
DGENRE=JPop
TTITLE0=Introduction
TTITLE1=Here alone (Album version)
TTITLE2=Harmony
TTITLE3=Break out
TTITLE4=True fighter
TTITLE5=Miracle (Album version)
TTITLE6=Oh, happy day (Studio live version)
TTITLE7=Silhouette (Album version)
TTITLE8=Infinite...
TTITLE9=Gems
TTITLE10=Daphne
TTITLE11=Step
TTITLE12=Always
TTITLE13=Give me up (Bonus track)
TTITLE14=DATA
EXTD=
EXTT0=
EXTT1=
EXTT2=
EXTT3=
EXTT4=
EXTT5=
EXTT6=
EXTT7=
EXTT8=
EXTT9=
EXTT10=
EXTT11=
EXTT12=
EXTT13=
EXTT14=
PLAYORDER=
